<svg width="40" height="40" viewBox="0 0 40 40" fill="none" xmlns="http://www.w3.org/2000/svg">
<path d="M2.23134 1.57049H37.7687C37.9769 1.57042 38.1765 1.48766 38.3238 1.34041C38.471 1.19315 38.5537 0.993462 38.5537 0.785247C38.5537 0.577032 38.471 0.37734 38.3238 0.230085C38.1765 0.0828305 37.9769 6.98621e-05 37.7687 0L2.23134 0C2.02312 6.98621e-05 1.82345 0.0828305 1.67624 0.230085C1.52903 0.37734 1.44634 0.577032 1.44634 0.785247C1.44634 0.993462 1.52903 1.19315 1.67624 1.34041C1.82345 1.48766 2.02312 1.57042 2.23134 1.57049ZM18.1431 2.89152C16.9326 2.88942 17.2515 2.89152 16.0421 2.89152V2.89257C14.7999 2.89257 13.5578 2.88836 12.3157 2.89363C11.6873 2.89573 11.3115 3.2073 11.1336 3.84834C11.0599 4.11781 9.26302 8.44194 8.3609 10.2966C7.21667 12.6492 6.06508 14.9955 5.12401 17.4523C4.54506 18.9649 4.10611 20.5059 3.87558 22.0954H3.4482C3.59031 20.1628 3.93979 18.2723 4.6419 16.4534C5.56823 14.0618 6.56509 11.7019 7.53457 9.33034C8.18721 7.73879 8.89249 6.16935 9.26091 4.46307C9.46091 3.54309 8.98091 2.89468 8.08721 2.89257C6.30824 2.88942 4.53137 2.89047 2.7524 2.89257C1.85344 2.89257 1.44607 3.33046 1.44607 4.29255V22.0954H0.785011C0.576789 22.0954 0.37712 22.1782 0.22991 22.3254C0.0826991 22.4727 0 22.6724 0 22.8806C0 23.0888 0.0826991 23.2885 0.22991 23.4358C0.37712 23.583 0.576789 23.6658 0.785011 23.6658H1.44607V38.6571C1.44607 39.5266 1.87555 39.9845 2.68925 39.9866C3.1103 39.9876 3.53452 39.955 3.95242 39.9918C4.96191 40.0834 5.45349 39.1666 5.19454 38.2824C4.59769 36.2488 4.10611 34.1867 3.84295 32.0678C3.49221 29.2814 3.33569 26.474 3.37452 23.6658H3.71873C3.70308 23.9568 3.69501 24.2481 3.69452 24.5395C3.68926 27.2395 4.124 29.8741 4.72612 32.4825C5.2356 34.6919 5.76823 36.8951 6.29035 39.1013C6.42403 39.6603 6.83772 39.9929 7.41668 39.9961C8.62722 40.0003 9.83566 40.0003 11.0473 39.9961C11.862 39.9918 12.3399 39.3413 12.1873 38.4856C11.8273 36.4824 8.01669 28.5784 6.94404 26.4395C6.50509 25.5616 6.12613 24.6511 5.94192 23.6658H7.0272C7.13034 23.6659 7.23249 23.6456 7.32779 23.6061C7.4231 23.5667 7.50969 23.5089 7.58264 23.4359C7.65559 23.363 7.71345 23.2765 7.75293 23.1812C7.79241 23.0859 7.81274 22.9837 7.81274 22.8806C7.81274 22.7775 7.79241 22.6753 7.75293 22.58C7.71345 22.4847 7.65559 22.3982 7.58264 22.3253C7.50969 22.2523 7.4231 22.1945 7.32779 22.1551C7.23249 22.1156 7.13034 22.0953 7.0272 22.0954H6.34614C6.38929 22.0543 6.43456 22.0154 6.48193 21.9796C7.15773 21.4596 11.7346 16.9881 13.6915 14.7239C16.2347 11.7829 18.0073 8.35984 19.3 4.64201C19.6547 3.6273 19.161 2.89257 18.1421 2.89152H18.1431ZM39.215 22.0954H38.555V4.29465C38.555 3.33151 38.1476 2.89468 37.2476 2.89257C35.4697 2.89257 33.6918 2.89047 31.9128 2.89363C31.0201 2.89468 30.5401 3.54414 30.7391 4.46517C31.1075 6.1704 31.8138 7.73985 32.4654 9.33139C33.436 11.7029 34.4339 14.0629 35.3581 16.4544C36.0613 18.2733 36.4107 20.1638 36.5528 22.0964H36.1255C35.8939 20.507 35.456 18.9659 34.876 17.4533C33.936 14.9965 32.7833 12.6503 31.6402 10.2977C30.737 8.44299 28.9412 4.11886 28.8675 3.8494C28.6885 3.20836 28.3127 2.89678 27.6854 2.89468C26.4432 2.88942 25.2011 2.89468 23.959 2.89468V2.89257C22.7485 2.89257 23.0685 2.89047 21.8579 2.89257C20.84 2.89363 20.3463 3.6294 20.7 4.64307C21.9937 8.36089 23.7653 11.784 26.3096 14.725C28.2654 16.9881 32.8423 21.4606 33.5191 21.9806C33.5665 22.0164 33.6107 22.0554 33.6539 22.0964H32.9739C32.8707 22.0964 32.7686 22.1167 32.6733 22.1561C32.578 22.1956 32.4914 22.2534 32.4184 22.3263C32.3455 22.3992 32.2876 22.4858 32.2481 22.5811C32.2086 22.6764 32.1883 22.7785 32.1883 22.8817C32.1883 22.9848 32.2086 23.0869 32.2481 23.1822C32.2876 23.2775 32.3455 23.3641 32.4184 23.437C32.4914 23.5099 32.578 23.5678 32.6733 23.6072C32.7686 23.6466 32.8707 23.6669 32.9739 23.6669H34.0581C33.8749 24.6521 33.496 25.5627 33.057 26.4405C31.9833 28.5794 28.1727 36.4835 27.8127 38.4866C27.6601 39.3424 28.1391 39.9929 28.9538 39.9961C30.1643 40.0013 31.3738 40.0013 32.5854 39.9961C33.1633 39.9939 33.577 39.6613 33.7097 39.1024C34.2328 36.8961 34.7655 34.693 35.2749 32.4836C35.8771 29.8752 36.3107 27.2405 36.3065 24.5406C36.3055 24.25 36.2971 23.9585 36.2813 23.6669H36.6265L36.6329 24.1553C36.6476 26.8007 36.489 29.4442 36.1581 32.0688C35.8949 34.1877 35.4023 36.2498 34.8065 38.2835C34.5465 39.1676 35.0381 40.0845 36.0486 39.9929C36.4665 39.955 36.8908 39.9887 37.3118 39.9876C38.1245 39.9855 38.5539 39.5276 38.5539 38.6582C38.556 33.6614 38.555 28.6636 38.5539 23.6669H39.215C39.4232 23.6668 39.6229 23.5841 39.7701 23.4368C39.9173 23.2896 40 23.0899 40 22.8817C40 22.6734 39.9173 22.4737 39.7701 22.3265C39.6229 22.1792 39.4232 22.0965 39.215 22.0964V22.0954Z" fill="#B9A493"/>
</svg>
